# xmcd
#
# Track frame offsets: 
#        150
#        10895
#        20965
#        28625
#        34600
#        44265
#        54020
#        63358
#        74305
#        86965
#        92955
#        108253
#        123513
#        133608
#        141223
#        149338
#        165080
#
# Disc length: 2329 seconds
#
# Revision: 3
# Processed by: cddbd v1.5.2PL0 Copyright (c) Steve Scherf et al.
# Submitted via: ExactAudioCopy v1.0b3
#
DISCID=e7091711
DTITLE=Various Artist - テレビアニメ スーパーヒストリー Vol.01
DYEAR=1998
DGENRE=Anime
TTITLE0=コロムビアゆりかご会 - 鉄腕アトム
TTITLE1=西六郷少年合唱団 - 鉄人28号
TTITLE2=西六郷少年合唱団 - 狼少年ケン
TTITLE3=三鷹淳 - 少年忍者風のフジ丸
TTITLE4=西六郷少年合唱団 - たたかう少年忍者
TTITLE5=上高田少年合唱団 - スーパージェッター
TTITLE6=中村メイコ - 宇宙人ピピ
TTITLE7=中村メイコ - ピピのうた
TTITLE8=上高田少年合唱団 - 宇宙少年ソラン
TTITLE9=みすず児童合唱団 - 星の炎に
TTITLE10=ボーカル・ショップ - ワンダー3
TTITLE11=石川進 - オバケのQ太郎
TTITLE12=三浦弘 - ジャングル大帝
TTITLE13=弘田三枝子 - レオのうた
TTITLE14=大山のぶ代 - ハッスル・パンチの歌
TTITLE15=丹野伸 - レインボー戦隊ロビン
TTITLE16=丹野伸 - ロビンの宇宙旅行
EXTD=
EXTT0=
EXTT1=
EXTT2=
EXTT3=
EXTT4=
EXTT5=
EXTT6=
EXTT7=
EXTT8=
EXTT9=
EXTT10=
EXTT11=
EXTT12=
EXTT13=
EXTT14=
EXTT15=
EXTT16=
PLAYORDER=
